<svg width="800" height="960" viewBox="0 0 800 960" fill="none" xmlns="http://www.w3.org/2000/svg">
  <rect width="800" height="960" fill="#F3E6D2"/>
  <circle cx="664" cy="134" r="126" fill="#D4AF37" fill-opacity="0.12"/>
  <ellipse cx="400" cy="540" rx="252" ry="130" fill="#B98730" fill-opacity="0.22"/>
  <ellipse cx="400" cy="514" rx="272" ry="146" fill="#D3A94B"/>
  <ellipse cx="400" cy="504" rx="228" ry="118" fill="#FCF8F2"/>
  <g fill="#E0D1A6">
    <rect x="258" y="438" width="74" height="74" rx="12" transform="rotate(45 258 438)"/>
    <rect x="348" y="408" width="74" height="74" rx="12" transform="rotate(45 348 408)"/>
    <rect x="438" y="438" width="74" height="74" rx="12" transform="rotate(45 438 438)"/>
    <rect x="528" y="408" width="74" height="74" rx="12" transform="rotate(45 528 408)"/>
    <rect x="304" y="530" width="74" height="74" rx="12" transform="rotate(45 304 530)"/>
    <rect x="394" y="560" width="74" height="74" rx="12" transform="rotate(45 394 560)"/>
    <rect x="484" y="530" width="74" height="74" rx="12" transform="rotate(45 484 530)"/>
  </g>
  <g fill="#8FA75A">
    <circle cx="332" cy="470" r="7"/>
    <circle cx="422" cy="440" r="7"/>
    <circle cx="512" cy="470" r="7"/>
    <circle cx="394" cy="592" r="7"/>
  </g>
</svg>
